<?xml version="1.0" encoding="utf-8"?>
<!-- Created by UniConvertor 2.0rc5 (https://sk1project.net/) -->
<svg xmlns="http://www.w3.org/2000/svg" height="234.0px" width="328.0px" version="1.1" xmlns:xlink="http://www.w3.org/1999/xlink" id="e8a64ef0-ca1e-11ec-98fa-0242ac120003">

<g>
	<g>
		<path style="fill:#1d1d1b;" d="M 78.0,116.8 C 78.0,69.4 116.4,31.0 163.8,31.0 211.2,31.0 249.6,69.4 249.6,116.8 249.6,164.2 211.2,202.6 163.8,202.6 163.8,202.6 163.8,202.6 163.8,202.6 116.4,202.5 78.0,164.1 78.0,116.8 78.0,116.8 78.0,116.8 78.0,116.8 Z" />
		<path style="fill:#ffffff;" d="M 202.4,81.9 C 195.1,78.6 187.5,76.2 179.6,74.9 178.6,76.7 177.5,79.0 176.7,80.9 168.3,79.6 159.8,79.6 151.4,80.9 150.5,78.8 149.5,76.8 148.4,74.9 140.5,76.2 132.8,78.6 125.6,82.0 111.2,103.5 107.3,124.4 109.2,145.1 117.7,151.4 127.1,156.2 137.2,159.2 139.5,156.1 141.5,152.9 143.2,149.5 139.9,148.3 136.8,146.8 133.8,145.0 134.6,144.4 135.3,143.8 136.1,143.2 153.8,151.6 174.4,151.6 192.1,143.2 192.9,143.8 193.6,144.4 194.4,145.0 191.4,146.8 188.2,148.3 184.9,149.5 186.6,152.9 188.6,156.1 190.9,159.2 201.0,156.1 210.5,151.4 218.9,145.1 221.1,121.1 214.9,100.3 202.4,81.9 Z M 145.6,132.3 C 140.1,132.3 135.7,127.3 135.7,121.2 135.7,115.1 140.1,110.0 145.6,110.0 151.2,110.0 155.6,115.0 155.6,121.2 155.5,127.3 151.2,132.3 145.6,132.3 Z M 182.4,132.3 C 176.9,132.3 172.5,127.3 172.5,121.2 172.5,115.1 176.9,110.0 182.4,110.0 188.0,110.0 192.4,115.0 192.3,121.2 192.2,127.4 187.9,132.3 182.4,132.3 Z" />
	</g>
</g>
</svg>